<svg xmlns="http://www.w3.org/2000/svg" xmlns:xlink="http://www.w3.org/1999/xlink" fill="none" viewBox="0 0 104 88"  xmlns:v="https://vecta.io/nano"><g clip-path="url(#t)"><path d="M0 54.723S12.825-14.02 50.972 4.012c13.195 6.231 21.869 4.951 29.844 6.808C100.3 15.442 103.178 56.868 104 65.41c-21.211 5.447-26.925 13.534-55.535 17.454 0 0-30.213-15.267-48.465-28.141z" fill="url(#A)"/><path d="M94.874 59.427c-5.344-.124-44.724-19.6-56.768-20.466-10.153-.702-16.484 3.796-24.212 10.728-5.755 5.199-1.069 24.634-1.069 24.634 40.202 14.07 73.787 21.745 82.049-14.896z" fill="url(#B)" opacity=".63"/><path d="M31.159 34.505s3.042 8.252 4.111 9.862 3.864 5.034 1.891 11.388-3.042 26.655-3.042 26.655-13.154.825-16.813-5.9c-3.864-7.056 1.85-15.803 1.85-15.803l12.003-26.201z" fill="url(#C)"/><path d="M24.705 36.279l-2.261 2.806s-.863-2.022-3.946.371-7.399 4.333-8.098 5.199c-.699.825-1.028 5.282-1.028 5.282s-.74-.165-.74.495.123 1.485-.164 1.774.288.578.493 0l.37-.908-1.768 4.993s0 .701.452.867l1.233-3.342-.164 9.614c0 .495-.575 1.362-.575 2.228s2.672 8.954 4.111 8.954h1.48s1.069 2.228 3.165 2.146 8.304-9.531 8.304-10.068c0-.495.452-1.362.452-1.362l1.48-1.898-2.055-1.527-1.028-2.93-1.398-12.172 1.685-10.522z" fill="url(#D)"/><path d="M36.133 19.279c1.315 1.155.904 3.301 1.603 4.704.534 1.032 2.179 1.651 1.398 2.806-.247.33-.37.289-.288.784.041.413.329.454 0 .866.534.454-.082.66-.164 1.155s.082.949-.206 1.444c-.37.66-2.261.619-3.206 1.073-.946.413-2.549 2.888-2.508 3.879-.041-.825.699-2.641.329-3.383s-1.192-1.651-1.069-2.517c.123-.825.781-1.527.863-2.352-.329-.082-1.028-.866-1.274-1.114-.576-.619-.781-2.269.247-2.517.576-.124.534-.495 1.11-.825.617-.371 1.439-.619 1.809-1.238.493-.784 1.356-1.815 1.356-2.764-.041.082-.164.165 0 0z" fill="url(#E)"/><path d="M38.147 31.493c-2.508.165-3.371 1.197-3.617 1.65-.206.371-1.356 3.177-1.603 3.507-.123-.248.534-2.723.37-2.971-.329-.578-.863-1.073-1.398-1.444-.37-.248-.534-.33-.288-.784.329-.619-.534-6.437-.247-5.818 1.028 2.146 1.603 2.393 2.466 1.981.617-.33-1.274 1.774 2.919 2.435.37.041.617.536.986.701" fill="url(#F)"/><path d="M33.296 23.942s2.22 1.568 5.426 1.197c0 0 1.151.66.863 2.022-.411 2.022-.781 4.456-1.644 4.539s-4.645-3.095-4.645-3.095l-.904-1.279s1.274 1.114 2.138.495c.699-.495.987-.619 1.069-1.114.123-.701-.658-1.279-1.233-1.651l-1.439-.949.37-.165z" fill="url(#G)"/><path d="M23.308 54.104l10.523-2.971c.493-.165 1.028-.413 1.439-1.65s1.398-3.012 1.644-3.342 1.768-1.527 2.096-1.692 1.11.165.986.867c-.082.619-.575 1.279-.575 1.279s.904-.413 1.233-.083.822.701-.493 1.733c0 0 .575-.248.863-.289s.617.66.452.99-.493.495-.493.495.493.165.329.867-.658 1.032-.658 1.032-1.356 1.733-3.001 2.558c-1.685.867-2.877 1.279-3.453 1.403s-12.743 4.786-12.743 4.786l1.85-5.983z" fill="url(#H)"/><path d="M40.284 50.267c-.288-.124-.37-.083-.329-.454.041-.289.164-.454-.041-.702-.164-.206-.329-.206-.575-.289-.329-.083-.329-.083-.411-.413-.041-.206-.041-.413-.206-.578-.206-.206-.534-.041-.699-.248-.206-.206-.041-.536-.288-.784s-.74-.33-1.151-.289a18.9 18.9 0 0 0-1.356 2.888c-.247.743-.534 1.114-.822 1.362.411.536 1.233.701 1.48 1.362.082.248.082.536-.041.743-.206.371-.986.619-1.356.784-.781.371-1.644.619-2.466.908l-5.344 1.692c-1.439.454-2.877.702-4.357 1.032h-.041l-.863 2.723 12.743-4.786c.575-.124 1.768-.536 3.453-1.403s3.001-2.558 3.001-2.558.082-.041.164-.165c0-.083 0-.165-.041-.248.041-.289-.164-.454-.452-.578z" fill="url(#I)"/><path d="M13.565 46.223c.452 0 .329.908 1.644-.248l6.618-6.313s-.288-1.032-1.932-.33c-2.302.949-8.55 8.418-8.55 8.418s-.699 1.362-1.932 1.279l-.082.867s-.74-.165-.74.495.123 1.485-.164 1.774c-.164.165-.041.33.164.33l.74-1.238c.041.041 3.823-5.034 4.234-5.034z" fill="url(#J)"/><path d="M32.228 56.126l-6.248 6.066 1.603 1.197 7.687-8.459-3.042 1.197z" fill="#7ea6d6"/><path d="M26.103 65.286l.781-1.031-3.165 3.549c-1.069 1.238-5.59 4.91-6.7 5.529-.493.289-1.315.867-1.891.908-.74 0-3.001-4.374-3.33-6.231-.329-1.898-.411-3.879-.411-5.818 0-.867.082-2.063-.493-2.723.658-.867 1.398-2.352.575-3.383-.411-.536-.822-.289-.987-1.073s.329-1.568.575-2.269c.247-.743.904-2.806-.37-2.517-.411.083-.945.619-1.439 1.197-.082.289-1.726 4.828-1.726 4.828s0 .702.452.867l1.233-3.342-.164 9.614c0 .495-.575 1.362-.575 2.228s2.672 8.954 4.111 8.954h1.48s1.069 2.228 3.165 2.146 8.304-9.531 8.304-10.068c.123-.495.576-1.362.576-1.362z" fill="url(#K)"/><path d="M9.29 51.464l-.822 1.032c.123.083.37.041.493-.289l.329-.743z" fill="url(#L)"/><path d="M29.145 33.762s2.754.702 3.987 3.507l4.029 8.665-.904 1.155s-2.014-3.26-3.124-6.107c-1.069-2.847-1.398-6.107-3.987-7.221zm7.153 20.755c-.863 1.857-2.055 7.675-2.055 7.675h1.809c.206-1.981 2.343-8.748 2.343-8.748l-2.096 1.073z" fill="url(#M)"/><path d="M34.653 17.711c.74.248 1.562.866 1.727 1.692.123.619-.452 1.362-.699 1.898a6.99 6.99 0 0 0-.658 2.104c-.041.371-.041.743-.164 1.073-.206.701-.329 1.362-.987.866-.37-.289-.699-1.032-.987-1.362-.658-.619-1.726.743-1.685 1.362.041.289.206.619.329.866.288.578.617 1.197.987 1.733.74 1.197 1.521 2.104 1.398 3.59s-.617 2.888-.247 4.374c.206.743.904 1.527 1.726 1.403.082.206-.041.413-.164.578-.123.206-.288.371-.534.413-.247.083-.534-.041-.74.041.041.206.123.413.247.578s.658.371.493.536c-1.274 1.155-1.685.083-3.617-3.342-.863-1.527-3.247-4.044-8.468 1.444-.329.371-.041-1.403-.411-1.774-.576-.578-1.932-2.352-.329-2.723.165-1.403 1.11-1.403 2.22-1.362.945.041 1.644-.289 2.096-1.155.658-1.279 0-2.806.082-4.167.082-1.898.74-4.002 2.014-5.405.986-1.073 2.055-1.527 3.412-1.939.575-.165 1.233-.371 1.727-.784.123-.124.206-.289.37-.413.288-.206.575-.124.863-.206a5.62 5.62 0 0 1-.699.701" fill="url(#N)"/><path d="M34.817 17.587s-2.96-.908-3.289-.784-.493.495-.493.495-4.399-.495-5.426-.206c-1.028.248-4.851 2.393-5.673 4.58s2.014 2.063 2.014 2.063-.781 1.485.206 1.568 1.315.454 1.274.949.411 1.403.411 1.403-.493.124-.041.701l1.85 2.187s.123.413.863-.124c.863-.619 4.357-2.187 7.481-8.913 1.809-3.837.822-3.92.822-3.92z" fill="url(#O)"/><path d="M30.09 19.898c1.11-1.279 1.028-3.466.904-3.053-.658 2.187-2.466 4.374-2.795 4.126-.452-.371.822-1.527.781-2.063-.165-1.155-2.508.536-2.96.784-.617.33-1.48.536-2.138.165-.288-.165-.37-.454-.658-.66-.493-.33-1.151-.206-1.768-.041-.658.619-1.233 1.279-1.48 1.981-.822 2.187 2.014 2.063 2.014 2.063s-.781 1.485.206 1.568 1.316.454 1.274.949.411 1.403.411 1.403-.493.124-.041.701l1.85 2.187s.123.413.863-.124c.781-.578 3.946-2.022 6.947-7.84-.863-.083-3.987-1.486-3.412-2.146z" fill="url(#P)"/><path d="M39.421 46.553s.493-.702.575-1.279v-.041c-.411.454-.699 1.114-1.151 1.527.206.041.781-.165 1.192-.371-.329.041-.617.165-.617.165z" fill="url(#Q)"/><path d="M27.336 32.772s-4.234.083-4.933 4.333c-.74 4.209-2.261 7.51-2.672 8.087s-.986.165-1.192 1.651c-.206 1.527-1.644 1.073-2.179 3.342l-1.809 7.056s-.411 3.961 1.932 3.383 4.81.041 4.81.041 2.384-3.012 2.302-4.25.247-2.599.247-2.599 2.014-1.527 2.672-3.26l2.631-5.158s2.22-.083 2.713-3.714c.452-3.631 1.151-8.5-4.522-8.913z" fill="url(#R)"/><path d="M31.817 41.726l.247-1.981-.206.083c-.041 1.238-.247 2.311-1.562 2.682-1.233.371-2.138-.536-3.371-.536-2.754.041-1.891 2.888-1.357 4.663.37 1.32.822 2.723-.945 1.981-.617-.248-4.974-3.26-4.851-1.403.041.701 2.179 1.939 2.59 2.434.534.619 1.233 1.444 1.357 2.27-1.439.083-2.96-1.527-4.357-.578 1.809.165 2.919 1.981 4.645 2.022h.247c.658-.578 1.685-1.651 2.137-2.806l2.631-5.158c.082.041 2.302-.041 2.795-3.672z" fill="url(#S)"/><path d="M37.325 22.044c-.082 0-.206-.124-.247-.206-.123-.082-.288-.165-.452-.124-.247.082-.534.371-.658.578s-.247.371-.329.619c-.041.124-.082.33-.206.454.37-.289.493-.866.946-1.032.247-.082.699.041.945.124 0-.124 0-.289-.041-.454 0 .041 0 .041.041.041z" fill="url(#T)"/><path d="M37.572 23.116c-.206.206-.329.33-.617.413-.123.041-.206.041-.329.124s-.206.206-.288.289c.123-.041.288-.124.452-.165.041.165.082.454.288.33.164-.082.164-.289.123-.454.082-.041.164-.083.206-.124.082-.165.082-.289.164-.413-.041.041-.082.041 0 0z" fill="url(#U)"/><path d="M51.26 26.871c1.932 1.527 6.002 6.066 7.646 7.922 1.192 1.362 2.59 2.723 3.782 4.044-.945 1.032-2.877 2.764-4.316 3.053-1.932.413.411 2.682-.658.949-1.603-2.599-6.084-9.655-6.865-12.709-.534-2.063-3.288-2.765.411-3.26z" fill="#bb4943"/><path d="M45.711 22.374c.411.248-.452.165-.041.413.493.33 1.028.454 1.562.701 1.192.578 1.809 1.444 2.055 2.847l.329 2.27c.041.289.123.495-.041.701-.534.578-1.973-.082-2.466-.371-.534-.289-1.192-.743-1.644-1.155-.575-.536-.945-1.774-.288-2.063.74-.454-.329-3.177.534-3.342z" fill="url(#V)"/><path d="M45.587 21.838c-1.439-.495-1.85.124-1.315 1.197.082.206.247.206.288.454 0 .165-.123.371-.164.536-.082.619.493.66.493 1.073 0 .206-.247.495-.288.743-.041.33.041.536.206.825.206.33.247.206.206.578-.041.248-.164.413-.041.701.247.578 1.233.825 1.727 1.032.658.289 1.233.701 1.85 1.073.534.33 1.192.536 1.603.99.699.784.74 1.403 1.521 2.104 1.973-.124 2.919-3.301 2.836-3.714-.288-1.197-1.973-1.733-2.302-2.971-.288-1.197-1.151-2.104-1.891-3.095a5.93 5.93 0 0 0-1.521-1.362c-.288-.165-.534.041-.822-.124s-.699-.66-.987-.371c-.904.908.822 1.692 1.357 2.104.206.165.37.454.493.701.206.371.534 1.403.617 1.857.123.701 1.151 3.012 1.151 3.012-1.069.743-3.412-.082-3.905-.949.288-.041.617 0 .822-.206.411-.371-.206-1.032-.658-1.114.575.041 1.973-.124 1.644-.99-.247-.66-1.932-.289-2.59-.66.575-.165 2.425.082 2.014-1.073-.288-.784-2.096-.454-2.836-.619-.082-.413.164-.371.37-.578.658-.536.288-1.032.123-1.155z" fill="url(#W)"/><path d="M43.326 20.517c-.123-.082-.164-.289-.082-.454.041-.041.123-.124.247-.206.288-.165.617-.165.863.041l2.672 2.063c.699.536 1.274 1.238 1.685 2.063l1.973 4.498c.123.33 0 .701-.329.825h-.041c-.247.083-.534-.041-.658-.289l-1.891-4.25c-.37-.866-.946-1.609-1.685-2.187l-2.754-2.104z" fill="url(#X)"/><path d="M46.656 28.15c.288-.041.617 0 .822-.206.411-.371-.206-1.032-.658-1.114.575.041 1.973-.124 1.644-.99-.247-.66-1.932-.289-2.59-.66.575-.165 2.425.082 2.014-1.073-.288-.784-2.096-.454-2.836-.619-.082-.413.164-.371.37-.578.575-.454.206-.949.041-1.073-1.439-.495-1.85.124-1.315 1.197.082.206.247.206.288.454 0 .165-.123.371-.164.536-.082.619.493.66.493 1.073 0 .206-.247.495-.288.743-.041.33.041.536.206.825.206.33.247.206.206.578-.041.247-.164.413-.041.701.164.413 1.768 1.073 2.261 1.238.041-.206-.946-.784-.781-.908.123-.082.288-.082.493-.082-.041.041-.123 0-.164-.041z" fill="#fff"/><path d="M73.54 39.002c-.411-3.507-2.138-.041-3.7 0-1.727 0-3.659-.289-4.522.413-.74.578-5.714-4.621-7.81-6.148-1.274 4.209-3.741 5.24-4.563 5.24 3.289 3.507 4.111 7.468 11.51 10.109.945.33 6.988.041 9.866 4.415 2.261 3.425.576-10.109-.781-14.029z" fill="url(#Y)"/><path d="M69.429 43.83c-1.727-.083-1.11.248-1.932 2.146-2.302-.248-2.302-4.786-4.357-5.818-1.521 1.692.123 6.066-3.412 2.599-1.603-1.568-2.919-3.92-4.727-5.282-.863.743-1.644.99-2.055.99 3.289 3.507 4.111 7.468 11.51 10.109.74.289 4.851.124 7.934 2.393 1.069-2.146.699-5.818.452-7.84-1.315 1.981-1.85.743-3.412.702z" fill="url(#Z)" opacity=".47"/><path d="M52.945 38.466s-.206-.578 1.11-1.898l.658 1.114s-.534.66-1.644.908" fill="url(#a)"/><path d="M76.5 17.628s-1.685.866-1.356 1.981.329 2.971-.493 4.126-.945 1.609-.534 1.898.617.371.617.371-.082 1.238.288 1.238c.411.041.288.206.288.206l.534.949s-.658.866.041.949c.699.041-2.261 1.816-2.425 2.228s1.603 0 2.549-.041-1.932.908-.863.908c.863 0 2.138-.33 2.179 3.136 0 0-.863 1.362-.863 2.228 0 .784 2.179 8.83 2.261 8.789 1.398-1.403 1.192-8.335 4.111-11.223 2.919-2.847 2.96 0 2.795-.248-.164-.206-.411-.66-.452-.908l-.37-8.005.904-6.808-2.919-2.063-5.755-1.774c.082.041.452.413-.534 2.063z" fill="url(#b)"/><path d="M76.582 36.527c-1.356.784-1.809.33-3.124.784-.863.289-3.782 11.925-3.864 12.337 1.233 17.454-7.235 41.798 12.825 30.699 10.77-5.983 11.592-13.204 11.592-13.204l-.904-4.58 3.494-2.888-1.891-12.296s-.041-1.898-.206-4.085-2.549-6.024-3.289-6.561c-.781-.536-6.001-3.879-6.001-3.879s-6.906 7.056-8.632 3.672z" fill="url(#c)"/><path d="M74.938 18.248l-1.48 3.549a1.93 1.93 0 0 0 0 1.651c.206.454.452.743.247 1.279-.288.743-1.151 1.444-.617 2.228.164.248.329.33.329.701.041.578-.123 1.155 0 1.774.082.413.247.66.247 1.114 0 .413-.247.743-.123 1.197.165.536.576.784 1.11.784.945.041 1.768-1.733 2.672-1.939 1.357-.33 2.795.165 3.741-.949.534-.619.987-.866 1.192-1.65.329-.165.74-.083 1.028-.248.781-.413 1.398-1.692 1.644-2.476.164-.619.576-2.187-.123-2.393s-1.809.083-2.343.495c-.452.371-.37 1.527-.904 1.32-1.603-.701-1.315-2.888-1.315-4.332 0-.495.082-1.279-.288-1.651-.534-.578-1.685-.578-2.384-.66-.822-.165-1.727-.165-2.631.206z" fill="#bb4943"/><path d="M74.732 23.034c.164.66 1.233.371 1.685.454l.945.248c.288.082.74.165.987.33-.534-.454-1.11-.949-1.809-1.114-.617-.165-1.315-.082-1.809.083z" fill="url(#d)"/><path d="M77.116 24.354c-.329 0-.617-.124-.904-.206-.288-.124-.576-.041-.863-.165.206.124.37.413.617.371 0 .165 0 .371.165.454.247.082.206-.206.288-.289.082-.124.247-.041.411-.041.082 0 .329-.083.288-.124z" fill="url(#e)"/><path d="M74.239 15.896c0 .33-.082.578.082.908.082.206.247.33.247.536-.206.041-.411.041-.617.041.329.99.863 1.155 1.85 1.073.945-.083 2.179-.165 3.083.206.534.206 1.233 1.032 1.11 1.65-.041.33-.411.248-.493.454-.082.248.329.825.452 1.032-.247.124-.822.082-.987-.082.329.578.534 1.114.987 1.609.329.371.288.66.288 1.155 0 1.238 0 2.393-.247 3.631-.082.454-.164.66.37.784.411.082 1.192 0 1.439-.371.37-.495.247-1.362.288-1.939.041-.495-.123-1.485.164-1.939.123-.165.329-.248.493-.371.288-.165.493-.33.74-.536.411-.289.863-.495 1.233 0 .329.495.123 1.073-.041 1.568-.164.454-.781 1.527-.658 2.022.041.206.37.413.493.619.247.371.247.949.493 1.279.493-3.218 4.028-5.777 3.206-9.284-.082-.413-.206-.866-.493-1.238-.164-.206-.411-.33-.576-.495-.329-.371-.288-.908-.699-1.32-.493-.454-1.11-.908-1.726-1.155-.576-.206-1.069-.619-1.685-.743-.74-.124-1.562.041-2.302.165-.822.124-1.562.041-2.343 0 0 .371.37.701.617.99-.493-.33-.987-1.197-1.644-1.197-.37 0-.781.289-1.151.371.082.124.206.248.329.33-.247 0-.493-.124-.74-.124-.288 0-.411.206-.699.289-.164.041-.247.041-.452 0-.123.165-.411.165-.411.082z" fill="url(#f)"/><path d="M74.198 23.694c-.288-.041-.699-.124-.904-.33-.041.248.247.248.329.371s.041.413.164.536c.37.33.206-.784.493-.289.041-.206-.165-.33-.329-.247" fill="url(#g)"/><path d="M74.074 23.075c-.082-.289-.493-.619-.822-.619 0 .289-.082.413.164.578.164.124.493.124.617.247" fill="url(#h)"/><path d="M77.404 35.619s-2.302.949-2.836 6.313c-.534 5.405-2.672 21.332-2.672 21.332.206.248 9.126-23.519 13.319-30.41l-.206.454L82.913 35l-9.208 22.447 1.48-15.391s.041-4.415 1.891-5.323l.329-1.114z" fill="url(#i)"/><path d="M73.458 25.138c.534-.289.987.206 1.439.536l1.644.949c.288.165.617.371.945.454.493.082 1.028-.083 1.48-.289.781-.413 1.521-1.032 2.138-1.651.165-.165 2.549-1.527 2.754-1.65.164-.124-1.932 1.733-1.727 1.774-.37.371-.576.124-.945.495-.206.247-.411.495-.534.784-.165.247-.411.701-.411.99.082 1.155 2.343.413 3.206-.041-.041.165-1.48 1.733-1.603 1.939a2.57 2.57 0 0 1-1.069 1.032c-.699.413-1.439.825-2.22 1.073l-3.083 1.032c-.37.083-1.069.165-1.439 0-1.028-.413-1.315-4.126-1.439-5.075-.041-.66.452-2.269.863-2.352z" fill="url(#j)"/><path d="M74.321 17.629c-.74.33-4.481 13.328-4.481 13.328s.452-.99 5.919-.082c1.727.289 3.453-.701 4.111-2.352l2.672-6.808s-1.562-3.755-7.605-3.507" fill="url(#k)" opacity=".48"/><path d="M73.581 17.505c3.371 0 5.878.866 8.879 2.434 1.357.701 2.59 1.527 3.741 2.435 1.274 1.032 1.726 1.444.617 2.847-3.001-2.434-9.496-6.231-13.606-5.405-.206-.619.37-2.311.37-2.311z" fill="url(#l)"/><path d="M73.54 31.74c-.617-.825-.699-2.063-.781-3.177-1.192.578-2.302 1.32-3.083 2.352 1.356.413 2.425 1.403 3.946.908-.041-.041-.041-.082-.082-.082z" fill="url(#m)" opacity=".48"/><path d="M61.085 57.116s-2.014-.289-2.343-.578c-.37-.289-.206-.743-.206-.743l6.125.619c-1.398.825-3.576.701-3.576.701z" fill="url(#n)"/><path d="M66.305 52.867c.123-.083.904.165 1.315.206l2.59.908c.699.248 1.151.825 1.48.99s.534.619 1.398.908c.863.248 1.521.578 1.521.578 3.083 1.238 6.207 1.857 7.276 2.146 1.028.289 7.029.949 7.029.949l-1.521-.701 8.304-1.279s.123 2.888.493 4.209c.329 1.362-.288 3.053-.576 4.085s-1.398 1.362-1.768 1.279c-.411-.083-1.891.206-4.892-.413s-13.771-5.282-14.223-5.447c-.411-.206-2.877-.867-3.083-.867s-3.165 1.238-3.782 1.155c-.658-.041-.822-.908-.822-.908s-.123-.124-.863-.454-1.315-.949-1.315-.949h-.699c-.452.041-.699-.702-.781-.743s-.986-.041-1.439-.371-.411-.908-.411-.908 1.274-.083 1.727-.165 4.357-1.939 4.357-1.939-.123-.66-.288-.743c-.123-.083-1.069-.124-1.727-.454-.699-.33-.576-.206-.576-.206l1.274-.867z" fill="#bb4943"/><path d="M61.66 57.282s-.041.578.411.908 1.356.371 1.439.371c.082.041.329.743.781.743h.699s.534.66 1.316.949c.74.33.863.454.863.454s.206.867.822.908 3.576-1.197 3.782-1.155a65.07 65.07 0 0 1 3.083.867c.411.165 11.181 4.745 14.223 5.447 3.001.66 4.481.371 4.892.413.37.041 1.521-.289 1.768-1.279s.904-2.723.576-4.085c-.329-1.403-.493-4.209-.493-4.209l-1.151.206v.165c.082.206.863 3.714-.452 4.167s-2.055.867-4.193.536c-2.138-.371-18.21-7.303-19.526-6.973-1.356.371-4.357.825-5.262 1.197-.945.413-2.466.99-3.576.371z" fill="url(#o)" opacity=".22"/><path d="M78.678 65.947c7.81 1.362 10.236 3.92 14.593 2.476 4.851-1.568 4.357-2.723 4.563-6.973.123-2.517-1.603-9.862-1.973-12.214-.493-3.136-.164-6.313-1.603-9.243-2.96-5.942-9.085-4.539-9.372 2.104-.123 2.476.164 6.396 1.11 8.541.288.619.822.495 1.11 1.155.452.908.534 2.311.699 3.342.288 1.527 1.028 1.279 1.315 2.765-2.549-.578-7.153.908-9.537-.248.165.619.452 5.075-.904 8.294z" fill="url(#p)"/><path d="M75.02 61.738l.822.371c.164-.536.164-1.403.206-1.815.082-1.155-.082-2.311-.123-3.425l-1.028-.413s-.699-.33-1.603-.619-1.151-.784-1.48-.99-.822-.825-1.562-1.073l-2.713-.99c-.411-.083-.863-.33-1.028-.248-.123.083-1.685.867-1.685.867s-.247.619.493.949 1.151-.083 1.274 0c.164.124.987.578.987.578l-4.604 2.104c-.493.124-1.85.206-1.85.206s-.041.619.452.99 1.398.371 1.521.413.329.867.822.825h.74s.576.702 1.357 1.032.945.495.945.495.164.949.863.99c.658.083 3.782-1.279 3.987-1.279.164.083 2.754.825 3.206 1.032z" fill="url(#q)"/><path d="M94.258 40.034c-1.315-2.682-3.33-3.837-5.097-3.755v.083c4.768 1.857 4.316 2.311.658 15.927-1.521 5.612 2.343 1.939 5.138 4.209-.658 1.444-3.412 1.527-4.645 1.981.945.041 3.535 1.609 2.631 3.012-.74 1.155-3.823-.495-4.809-.66-1.685-.289-2.425.124-3.905.99-1.562.867-3.001 1.485-4.522 1.774-.329.743-.699 1.527-1.028 2.352 7.81 1.362 10.236 3.92 14.593 2.476 4.851-1.568 4.357-2.723 4.563-6.973.123-2.517-1.603-9.862-1.973-12.214-.493-3.095-.164-6.272-1.603-9.201z" fill="url(#r)" opacity=".21"/><path d="M43.491 19.857c.082-.701-14.305-3.177-14.305-3.177s1.521.825-1.644 7.84c-.165.371 15.949-4.663 15.949-4.663z" fill="url(#s)"/></g><defs><linearGradient id="A" x1="52" x2="52" y1="1" y2="82.847" xlink:href="#u"><stop stop-color="#fdb5b5" offset=".197"/><stop stop-color="#fdb5b5" stop-opacity="0" offset=".623"/></linearGradient><linearGradient id="B" x1="52.959" x2="52.959" y1="38.889" y2="86" xlink:href="#u"><stop stop-color="#cde2f5" offset=".377"/><stop stop-color="#cde2f5" stop-opacity="0" offset="1"/></linearGradient><linearGradient id="C" x1="26.908" x2="26.908" y1="34.508" y2="82.451" xlink:href="#u"><stop stop-color="#5e90cc" offset=".125"/><stop stop-color="#5e90cc" stop-opacity=".151" offset=".826"/><stop stop-color="#5e90cc" stop-opacity="0" offset=".934"/></linearGradient><linearGradient id="D" x1="17.598" x2="17.598" y1="36.27" y2="76.716" xlink:href="#u"><stop stop-color="#425486" offset=".155"/><stop stop-color="#5d8ec9" offset=".596"/><stop stop-color="#bfd3eb" offset=".802"/></linearGradient><linearGradient id="E" x1="31.164" x2="39.364" y1="27.621" y2="27.621" xlink:href="#u"><stop stop-color="#fca0a0" offset=".089"/><stop stop-color="#fb8989" offset=".706"/></linearGradient><linearGradient id="F" x1="30.895" x2="38.125" y1="31.046" y2="31.572" xlink:href="#u"><stop stop-color="#fca0a0" offset=".089"/><stop stop-color="#fb8989" offset=".706"/></linearGradient><linearGradient id="G" x1="36.24" x2="35.699" y1="24.141" y2="31.522" xlink:href="#u"><stop stop-color="#bfd3eb" offset=".116"/><stop stop-color="#9dbbde" offset=".475"/><stop stop-color="#80a7d5" offset="1"/></linearGradient><linearGradient id="H" x1="21.472" x2="41.56" y1="52.209" y2="52.209" xlink:href="#u"><stop stop-color="#fdb5b5" offset=".24"/><stop stop-color="#fdb5b5" offset=".444"/><stop stop-color="#fc9e9e" offset=".725"/></linearGradient><linearGradient id="I" x1="21.472" x2="40.847" y1="53.3" y2="53.3" xlink:href="#u"><stop stop-color="#fca0a0" offset=".535"/><stop stop-color="#fb8989" offset=".706"/></linearGradient><linearGradient id="J" x1="8.401" x2="21.836" y1="45.824" y2="45.824" xlink:href="#u"><stop stop-color="#5e90cc" stop-opacity="0" offset=".066"/><stop stop-color="#5a87c1" stop-opacity=".034" offset=".092"/><stop stop-color="#5174ab" stop-opacity=".119" offset=".158"/><stop stop-color="#4a669a" stop-opacity=".219" offset=".236"/><stop stop-color="#455b8f" stop-opacity=".343" offset=".333"/><stop stop-color="#435688" stop-opacity=".517" offset=".469"/><stop stop-color="#425486" offset=".846"/></linearGradient><linearGradient id="K" x1="17.257" x2="17.257" y1="50.205" y2="76.716" xlink:href="#u"><stop stop-color="#425486" offset="0"/><stop stop-color="#44598c" stop-opacity=".787" offset=".161"/><stop stop-color="#4b679c" stop-opacity=".513" offset=".368"/><stop stop-color="#557db6" stop-opacity=".205" offset=".6"/><stop stop-color="#5e90cc" stop-opacity="0" offset=".755"/></linearGradient><linearGradient id="L" x1="8.897" x2="8.897" y1="51.464" y2="52.54" xlink:href="#u"><stop stop-color="#425486" offset="0"/><stop stop-color="#435688" stop-opacity=".558" offset=".333"/><stop stop-color="#465c8f" stop-opacity=".374" offset=".472"/><stop stop-color="#4b669c" stop-opacity=".238" offset=".575"/><stop stop-color="#5276ad" stop-opacity=".125" offset=".66"/><stop stop-color="#5b89c4" stop-opacity=".029" offset=".733"/><stop stop-color="#5e90cc" stop-opacity="0" offset=".755"/></linearGradient><linearGradient id="M" x1="33.757" x2="33.757" y1="33.766" y2="62.188" xlink:href="#u"><stop stop-color="#425486" offset=".155"/><stop stop-color="#4a5f91" offset=".222"/><stop stop-color="#7092c3" offset=".552"/><stop stop-color="#7ea6d6" offset=".714"/></linearGradient><linearGradient id="N" x1="29.631" x2="28.006" y1="17.344" y2="39.517" xlink:href="#u"><stop stop-color="#717fa4" offset=".128"/><stop stop-color="#707ea3" offset=".133"/><stop stop-color="#455688" offset=".34"/><stop stop-color="#425486" offset=".586"/></linearGradient><linearGradient id="O" x1="22.328" x2="34.009" y1="26.647" y2="16.594" xlink:href="#u"><stop stop-color="#fb8989" offset=".348"/></linearGradient><linearGradient id="P" x1="19.718" x2="33.363" y1="22.877" y2="23.869" xlink:href="#u"><stop stop-color="#fa6b6b" offset=".394"/><stop stop-color="#fa6b6b" stop-opacity="0" offset="1"/></linearGradient><linearGradient id="Q" x1="38.853" x2="40.043" y1="45.985" y2="45.985" xlink:href="#u"><stop stop-color="#fb8989" offset=".83"/></linearGradient><linearGradient id="R" x1="14.498" x2="32.148" y1="46.739" y2="46.739" xlink:href="#u"><stop stop-color="#80a7d5" offset="0"/><stop stop-color="#9dbbde" offset="1"/></linearGradient><linearGradient id="S" x1="19.441" x2="32.067" y1="46.582" y2="46.582" xlink:href="#u"><stop stop-color="#5e90cc" stop-opacity="0" offset=".066"/><stop stop-color="#5e90cc" stop-opacity=".151" offset=".174"/><stop stop-color="#5e90cc" offset=".875"/></linearGradient><linearGradient id="T" x1="35.46" x2="37.34" y1="22.556" y2="22.556" xlink:href="#u"><stop stop-color="#717fa4" offset=".128"/><stop stop-color="#707ea3" offset=".133"/><stop stop-color="#455688" offset=".34"/><stop stop-color="#425486" offset=".586"/></linearGradient><linearGradient id="U" x1="36.33" x2="37.571" y1="23.587" y2="23.587" xlink:href="#u"><stop stop-color="#717fa4" offset=".128"/><stop stop-color="#707ea3" offset=".133"/><stop stop-color="#455688" offset=".34"/><stop stop-color="#425486" offset=".586"/></linearGradient><linearGradient id="V" x1="44.822" x2="49.848" y1="25.754" y2="26.052" xlink:href="#u"><stop stop-color="#fcfcfd" offset="0"/><stop stop-color="#f4f7fb" offset=".09"/><stop stop-color="#e0e9f5" offset=".392"/><stop stop-color="#d4e1f1" offset=".694"/><stop stop-color="#d0def0" offset=".991"/></linearGradient><linearGradient id="W" x1="44.261" x2="54.413" y1="27.446" y2="26.995" xlink:href="#u"><stop stop-color="#fcfcfd" offset=".431"/><stop stop-color="#f9fafc" offset=".583"/><stop stop-color="#eef2f9" offset=".717"/><stop stop-color="#dce6f4" offset=".844"/><stop stop-color="#c2d6ec" offset=".966"/><stop stop-color="#bad0ea" offset="1"/></linearGradient><linearGradient id="X" x1="47.328" x2="46.548" y1="20.058" y2="29.121" xlink:href="#u"><stop stop-color="#5d8ec9" offset=".213"/></linearGradient><linearGradient id="Y" x1="52.922" x2="75.444" y1="43.363" y2="43.442" xlink:href="#u"><stop stop-color="#9dbbde" offset=".151"/><stop stop-color="#bfd2e8" offset=".634"/></linearGradient><linearGradient id="Z" x1="63.031" x2="62.984" y1="37.506" y2="50.943" xlink:href="#u"><stop stop-color="#5e90cc" stop-opacity="0" offset=".066"/><stop stop-color="#5e90cc" stop-opacity=".151" offset=".174"/><stop stop-color="#5e90cc" stop-opacity=".58" offset=".505"/></linearGradient><linearGradient id="a" x1="53.825" x2="53.818" y1="36.584" y2="38.62" xlink:href="#u"><stop stop-color="#425486" offset=".155"/><stop stop-color="#4a5f91" offset=".222"/><stop stop-color="#7092c3" offset=".552"/><stop stop-color="#7ea6d6" offset=".714"/></linearGradient><linearGradient id="b" x1="70.995" x2="87.338" y1="21.658" y2="37.939" xlink:href="#u"><stop stop-color="#713532" offset=".564"/><stop stop-color="#bb4943" offset=".759"/></linearGradient><linearGradient id="c" x1="83.158" x2="82.541" y1="32.802" y2="83.212" xlink:href="#u"><stop stop-color="#9dbbde" offset=".088"/><stop stop-color="#bfd2e8" offset=".51"/><stop stop-color="#bfd2e8" stop-opacity="0" offset=".911"/></linearGradient><linearGradient id="d" x1="74.727" x2="78.37" y1="23.466" y2="23.466" xlink:href="#u"><stop stop-color="#455688" offset=".34"/><stop stop-color="#425486" offset=".586"/></linearGradient><linearGradient id="e" x1="75.329" x2="77.132" y1="24.399" y2="24.399" xlink:href="#u"><stop stop-color="#717fa4" offset=".128"/><stop stop-color="#707ea3" offset=".133"/><stop stop-color="#455688" offset=".34"/><stop stop-color="#425486" offset=".586"/></linearGradient><linearGradient id="f" x1="81.094" x2="81.094" y1="15.097" y2="29.33" xlink:href="#u"><stop stop-color="#717fa4" offset=".128"/><stop stop-color="#707ea3" offset=".133"/><stop stop-color="#5b6b96" offset=".228"/><stop stop-color="#4d5e8d" offset=".335"/><stop stop-color="#455688" offset=".464"/><stop stop-color="#425486" offset=".673"/></linearGradient><linearGradient id="g" x1="73.309" x2="74.302" y1="23.856" y2="23.856" xlink:href="#u"><stop stop-color="#717fa4" offset=".128"/><stop stop-color="#707ea3" offset=".133"/><stop stop-color="#455688" offset=".34"/><stop stop-color="#425486" offset=".586"/></linearGradient><linearGradient id="h" x1="73.239" x2="74.055" y1="22.86" y2="22.86" xlink:href="#u"><stop stop-color="#717fa4" offset=".128"/><stop stop-color="#707ea3" offset=".133"/><stop stop-color="#455688" offset=".34"/><stop stop-color="#425486" offset=".586"/></linearGradient><linearGradient id="i" x1="78.562" x2="78.562" y1="32.846" y2="63.253" xlink:href="#u"><stop stop-color="#9dbbde" offset=".151"/><stop stop-color="#cde2f5" offset=".32"/></linearGradient><linearGradient id="j" x1="78.272" x2="78.272" y1="23.445" y2="32.662" xlink:href="#u"><stop stop-color="#5d8ec9" offset=".404"/><stop stop-color="#5071a8" offset=".622"/></linearGradient><linearGradient id="k" x1="71.634" x2="80.338" y1="23.711" y2="27.392" xlink:href="#u"><stop stop-color="#fff" offset=".339"/><stop stop-color="#fcfcfd" stop-opacity="0" offset=".637"/><stop stop-color="#fff" offset=".649"/><stop stop-color="#fff" stop-opacity=".6" offset="1"/></linearGradient><linearGradient id="l" x1="73.404" x2="87.552" y1="17.92" y2="23.903" xlink:href="#u"><stop stop-color="#5d8ec9" offset=".412"/><stop stop-color="#425486" offset=".434"/><stop stop-color="#5071a8" offset=".718"/></linearGradient><linearGradient id="m" x1="69.682" x2="73.626" y1="30.248" y2="30.248" xlink:href="#u"><stop stop-color="#fff" offset=".339"/><stop stop-color="#fcfcfd" stop-opacity="0" offset=".637"/><stop stop-color="#fff" offset=".649"/><stop stop-color="#fff" stop-opacity=".6" offset="1"/></linearGradient><linearGradient id="n" x1="64.699" x2="58.54" y1="56.526" y2="56.451" xlink:href="#u"><stop stop-color="#bfd2e8" offset="0"/><stop stop-color="#9dbbde" offset=".912"/></linearGradient><linearGradient id="o" x1="61.645" x2="96.369" y1="61.537" y2="61.537" xlink:href="#u"><stop stop-color="#722721" offset=".137"/></linearGradient><linearGradient id="p" x1="88.263" x2="88.263" y1="36.275" y2="68.858" xlink:href="#u"><stop stop-color="#cde2f5" offset=".681"/><stop stop-color="#9dbbde" offset=".849"/></linearGradient><linearGradient id="q" x1="68.613" x2="68.613" y1="52.521" y2="62.105" xlink:href="#u"><stop stop-color="#fcfcfd" offset=".105"/></linearGradient><linearGradient id="r" x1="78.69" x2="97.836" y1="52.569" y2="52.569" xlink:href="#u"><stop stop-color="#5e90cc" stop-opacity="0" offset=".066"/><stop stop-color="#5e90cc" stop-opacity=".151" offset=".174"/><stop stop-color="#5e90cc" stop-opacity=".58" offset=".505"/></linearGradient><linearGradient id="s" x1="27.54" x2="43.486" y1="20.61" y2="20.61" xlink:href="#u"><stop stop-color="#fcfcfd" stop-opacity="0" offset=".54"/><stop stop-color="#fcfcfd" offset="1"/></linearGradient><clipPath id="t"><path transform="translate(0 1)" fill="#fff" d="M0 0h104v85H0z"/></clipPath><linearGradient id="u" gradientUnits="userSpaceOnUse"/></defs></svg>